<svg width="69" height="70" viewBox="0 0 69 70" fill="none" xmlns="http://www.w3.org/2000/svg">
<path d="M67.5 35C67.5 53.522 52.7051 68.5 34.5 68.5C16.2949 68.5 1.5 53.522 1.5 35C1.5 16.478 16.2949 1.5 34.5 1.5C52.7051 1.5 67.5 16.478 67.5 35Z" stroke="#17306A" stroke-width="3"/>
<path d="M35.625 31.5H40.375V36.25H35.625V47.3333H30.875V36.25H26.125V31.5H30.875V29.5129C30.875 27.6303 31.4672 25.2522 32.6452 23.9522C33.8232 22.6492 35.2941 22 37.0563 22H40.375V26.75H37.05C36.2615 26.75 35.625 27.3865 35.625 28.1734V31.5Z" fill="#17306A"/>
</svg>
