<svg width="69" height="70" viewBox="0 0 69 70" fill="none" xmlns="http://www.w3.org/2000/svg">
<path d="M67.5 35C67.5 53.522 52.7051 68.5 34.5 68.5C16.2949 68.5 1.5 53.522 1.5 35C1.5 16.478 16.2949 1.5 34.5 1.5C52.7051 1.5 67.5 16.478 67.5 35Z" stroke="#17306A" stroke-width="3"/>
<path d="M35 39.3334C37.3932 39.3334 39.3333 37.3933 39.3333 35.0001C39.3333 32.6068 37.3932 30.6667 35 30.6667C32.6068 30.6667 30.6667 32.6068 30.6667 35.0001C30.6667 37.3933 32.6068 39.3334 35 39.3334Z" fill="#17306A"/>
<path d="M40.4156 22H29.5822C25.4017 22 22 25.4028 22 29.5844V40.4177C22 44.5983 25.4028 48 29.5844 48H40.4177C44.5983 48 48 44.5973 48 40.4156V29.5822C48 25.4017 44.5973 22 40.4156 22ZM35 41.5C31.4153 41.5 28.5 38.5848 28.5 35C28.5 31.4153 31.4153 28.5 35 28.5C38.5848 28.5 41.5 31.4153 41.5 35C41.5 38.5848 38.5848 41.5 35 41.5ZM42.5833 28.5C41.9853 28.5 41.5 28.0147 41.5 27.4167C41.5 26.8187 41.9853 26.3333 42.5833 26.3333C43.1813 26.3333 43.6667 26.8187 43.6667 27.4167C43.6667 28.0147 43.1813 28.5 42.5833 28.5Z" fill="#17306A"/>
</svg>
