<svg width="91" height="67" viewBox="0 0 91 67" fill="none" xmlns="http://www.w3.org/2000/svg">
<path d="M13.071 65.09C12.3643 65.79 11.5043 66.14 10.491 66.14C9.47764 66.14 8.61764 65.79 7.91098 65.09C7.20431 64.39 6.85098 63.5267 6.85098 62.5C6.85098 61.4733 7.20431 60.61 7.91098 59.91C8.61764 59.21 9.47764 58.86 10.491 58.86C11.5043 58.86 12.3643 59.21 13.071 59.91C13.7776 60.61 14.131 61.4733 14.131 62.5C14.131 63.5267 13.7776 64.39 13.071 65.09ZM8.45098 62.5C8.45098 63.1133 8.64431 63.6133 9.03098 64C9.41764 64.3867 9.90431 64.58 10.491 64.58C11.071 64.58 11.5543 64.3867 11.941 64C12.3343 63.6067 12.531 63.1067 12.531 62.5C12.531 61.8933 12.3343 61.3933 11.941 61C11.5543 60.6133 11.071 60.42 10.491 60.42C9.90431 60.42 9.41764 60.6133 9.03098 61C8.64431 61.3867 8.45098 61.8867 8.45098 62.5ZM21.5779 66H19.8279L19.4779 64.9H16.8779L16.5279 66H14.7779L17.1579 59H19.1979L21.5779 66ZM18.1779 60.83L17.3579 63.4H18.9979L18.1779 60.83ZM25.0783 66.14C24.3783 66.14 23.7883 65.99 23.3083 65.69C22.8283 65.3833 22.485 64.9567 22.2783 64.41L23.6583 63.61C23.9383 64.2567 24.4283 64.58 25.1283 64.58C25.7617 64.58 26.0783 64.39 26.0783 64.01C26.0783 63.7967 25.975 63.6367 25.7683 63.53C25.555 63.4033 25.175 63.2667 24.6283 63.12C24.0683 62.9667 23.595 62.7467 23.2083 62.46C22.7817 62.1133 22.5683 61.6233 22.5683 60.99C22.5683 60.3433 22.7983 59.8267 23.2583 59.44C23.725 59.0533 24.2783 58.86 24.9183 58.86C25.4917 58.86 25.9983 58.9967 26.4383 59.27C26.8783 59.5367 27.225 59.9267 27.4783 60.44L26.1283 61.23C25.875 60.69 25.4717 60.42 24.9183 60.42C24.685 60.42 24.5017 60.47 24.3683 60.57C24.235 60.67 24.1683 60.7967 24.1683 60.95C24.1683 61.1167 24.2483 61.2667 24.4083 61.4C24.5817 61.5333 24.9217 61.6733 25.4283 61.82L26.0783 62.03C26.245 62.0833 26.4383 62.1733 26.6583 62.3C26.8983 62.42 27.0783 62.55 27.1983 62.69C27.5183 63.0367 27.6783 63.47 27.6783 63.99C27.6783 64.65 27.4383 65.1767 26.9583 65.57C26.4783 65.95 25.8517 66.14 25.0783 66.14ZM29.0291 66V59H30.6291V66H29.0291ZM34.7842 66.14C34.0842 66.14 33.4942 65.99 33.0142 65.69C32.5342 65.3833 32.1908 64.9567 31.9842 64.41L33.3642 63.61C33.6442 64.2567 34.1342 64.58 34.8342 64.58C35.4675 64.58 35.7842 64.39 35.7842 64.01C35.7842 63.7967 35.6808 63.6367 35.4742 63.53C35.2608 63.4033 34.8808 63.2667 34.3342 63.12C33.7742 62.9667 33.3008 62.7467 32.9142 62.46C32.4875 62.1133 32.2742 61.6233 32.2742 60.99C32.2742 60.3433 32.5042 59.8267 32.9642 59.44C33.4308 59.0533 33.9842 58.86 34.6242 58.86C35.1975 58.86 35.7042 58.9967 36.1442 59.27C36.5842 59.5367 36.9308 59.9267 37.1842 60.44L35.8342 61.23C35.5808 60.69 35.1775 60.42 34.6242 60.42C34.3908 60.42 34.2075 60.47 34.0742 60.57C33.9408 60.67 33.8742 60.7967 33.8742 60.95C33.8742 61.1167 33.9542 61.2667 34.1142 61.4C34.2875 61.5333 34.6275 61.6733 35.1342 61.82L35.7842 62.03C35.9508 62.0833 36.1442 62.1733 36.3642 62.3C36.6042 62.42 36.7842 62.55 36.9042 62.69C37.2242 63.0367 37.3842 63.47 37.3842 63.99C37.3842 64.65 37.1442 65.1767 36.6642 65.57C36.1842 65.95 35.5575 66.14 34.7842 66.14ZM46.2238 62.37C46.7971 62.7433 47.0838 63.27 47.0838 63.95C47.0838 64.5567 46.8671 65.05 46.4338 65.43C46.0005 65.81 45.4638 66 44.8238 66H41.8838V59H44.6238C45.2438 59 45.7671 59.1867 46.1938 59.56C46.6205 59.9267 46.8338 60.4067 46.8338 61C46.8338 61.5667 46.6305 62.0233 46.2238 62.37ZM44.6238 60.5H43.4838V61.74H44.6238C44.8038 61.74 44.9505 61.6833 45.0638 61.57C45.1771 61.45 45.2338 61.3 45.2338 61.12C45.2338 60.94 45.1771 60.7933 45.0638 60.68C44.9505 60.56 44.8038 60.5 44.6238 60.5ZM43.4838 64.5H44.8238C45.0238 64.5 45.1838 64.44 45.3038 64.32C45.4238 64.1933 45.4838 64.03 45.4838 63.83C45.4838 63.63 45.4238 63.47 45.3038 63.35C45.1838 63.2233 45.0238 63.16 44.8238 63.16H43.4838V64.5ZM48.3811 63.74V59H49.9811V63.6C49.9811 64.2533 50.3477 64.58 51.0811 64.58C51.8144 64.58 52.1811 64.2533 52.1811 63.6V59H53.7811V63.74C53.7811 64.48 53.5277 65.0633 53.0211 65.49C52.5077 65.9233 51.8611 66.14 51.0811 66.14C50.3011 66.14 49.6544 65.9233 49.1411 65.49C48.6344 65.0633 48.3811 64.48 48.3811 63.74ZM55.535 66V59H57.135V66H55.535ZM60.5377 59V64.46H63.0377V66H58.9377V59H60.5377ZM64.3424 59H67.1424C68.1024 59 68.909 59.3367 69.5624 60.01C70.2157 60.6833 70.5424 61.5133 70.5424 62.5C70.5424 63.4933 70.2157 64.3267 69.5624 65C68.9157 65.6667 68.109 66 67.1424 66H64.3424V59ZM65.9424 64.46H67.1424C67.6957 64.46 68.1424 64.2833 68.4824 63.93C68.829 63.5767 69.0024 63.1 69.0024 62.5C69.0024 61.9 68.829 61.4267 68.4824 61.08C68.1424 60.72 67.6957 60.54 67.1424 60.54H65.9424V64.46ZM73.642 63.22V64.46H76.442V66H72.042V59H76.392V60.54H73.642V61.7H76.142V63.22H73.642ZM83.3447 66H81.6247L80.3047 63.7H79.5447V66H77.9447V59H80.7447C81.4114 59 81.9781 59.2333 82.4447 59.7C82.9114 60.1667 83.1447 60.7333 83.1447 61.4C83.1447 61.82 83.0247 62.2133 82.7847 62.58C82.5514 62.9467 82.2414 63.23 81.8547 63.43L83.3447 66ZM80.7447 60.5H79.5447V62.3H80.7447C80.9647 62.3 81.1514 62.2133 81.3047 62.04C81.4647 61.8667 81.5447 61.6533 81.5447 61.4C81.5447 61.1467 81.4647 60.9333 81.3047 60.76C81.1514 60.5867 80.9647 60.5 80.7447 60.5ZM87.0494 66.14C86.3494 66.14 85.7594 65.99 85.2794 65.69C84.7994 65.3833 84.4561 64.9567 84.2494 64.41L85.6294 63.61C85.9094 64.2567 86.3994 64.58 87.0994 64.58C87.7328 64.58 88.0494 64.39 88.0494 64.01C88.0494 63.7967 87.9461 63.6367 87.7394 63.53C87.5261 63.4033 87.1461 63.2667 86.5994 63.12C86.0394 62.9667 85.5661 62.7467 85.1794 62.46C84.7528 62.1133 84.5394 61.6233 84.5394 60.99C84.5394 60.3433 84.7694 59.8267 85.2294 59.44C85.6961 59.0533 86.2494 58.86 86.8894 58.86C87.4628 58.86 87.9694 58.9967 88.4094 59.27C88.8494 59.5367 89.1961 59.9267 89.4494 60.44L88.0994 61.23C87.8461 60.69 87.4428 60.42 86.8894 60.42C86.6561 60.42 86.4728 60.47 86.3394 60.57C86.2061 60.67 86.1394 60.7967 86.1394 60.95C86.1394 61.1167 86.2194 61.2667 86.3794 61.4C86.5528 61.5333 86.8928 61.6733 87.3994 61.82L88.0494 62.03C88.2161 62.0833 88.4094 62.1733 88.6294 62.3C88.8694 62.42 89.0494 62.55 89.1694 62.69C89.4894 63.0367 89.6494 63.47 89.6494 63.99C89.6494 64.65 89.4094 65.1767 88.9294 65.57C88.4494 65.95 87.8228 66.14 87.0494 66.14Z" fill="#17306A"/>
<path d="M26.4654 38.925V31.8547L22.0403 31.1142V39.5173L26.4654 38.925ZM29.137 38.5678V32.3005L27.2965 31.9926V38.8141L29.137 38.5678ZM32.1759 38.1612V32.8084L29.9272 32.4329V38.4622L32.1759 38.1612ZM33.2422 32.9871V37.8951L36.6891 38.17L36.6791 33.5615L33.2422 32.9871ZM19.2204 30.3136V26.6164L19.4003 26.2934L32.5912 17.4146L32.9825 17.3746L44.2688 21.8671V18.3468L44.4929 17.9985L52.5923 14.0088L53.5893 14.4034C53.5893 25.2717 53.5893 35.5083 53.5893 46.3759L52.5923 47.2532L32.8654 49.2007L32.8145 49.1563L32.7642 49.1976L20.4577 47.1441L20.1058 46.7571V43.5438L19.6355 43.5356L19.22 43.1441V40.2363L19.5853 39.8455L21.209 39.6282V30.9751L19.5637 30.7002L19.2204 30.3136Z" fill="#17306A"/>
<path d="M52.6752 40.2413L33.2422 38.9011V42.5355H52.6752V40.2413Z" fill="#E3C997"/>
<path d="M32.1756 24.3946L27.2962 26.8705V31.9685L29.1367 32.3005V38.5676L29.9269 38.4613L29.9475 32.4244L32.1756 32.8075V24.3946ZM36.6896 38.1706L40.7875 38.4981V26.436L33.2419 24.1565V32.9864L36.6794 33.5608L36.6896 38.1706ZM26.4653 27.2916L22.0402 29.5375V31.0923L26.4653 31.8536V27.2916ZM41.6186 38.5644L48.1619 39.0877L48.1633 28.6648L41.6186 26.6873V38.5644Z" fill="#93BFE6"/>
<path d="M20.0513 26.8207V29.6582L32.1757 23.2871V18.8643L20.0513 26.8207Z" fill="#E3C997"/>
<path d="M32.1759 38.9233L20.0513 40.3687V42.5373H32.1759V38.9233Z" fill="#E3C997"/>
<path d="M20.9375 43.3205V46.4221L32.1788 48.1291L32.1775 43.3198L20.9375 43.3205Z" fill="#E3C997"/>
<path d="M52.6752 26.0655L33.2422 18.5439V23.1095L52.6752 29.1487V26.0655Z" fill="#E3C997"/>
<path d="M33.2466 48.1569L52.6752 46.4524V43.3198L33.2948 43.3211L33.2466 48.1569Z" fill="#E3C997"/>
<path d="M52.5917 17.874L45.0054 21.2182V22.2506L52.0332 24.9704L52.5924 24.7835L52.5917 17.874Z" fill="#93BFE6"/>
<path d="M45.0054 20.348L52.5917 17.0108V14.8953L45.0054 18.6315V20.348Z" fill="#E3C997"/>
<path d="M0.0651459 34.7657C1.40183 32.9916 4.41603 30.4513 7.69904 28.465C10.3886 26.8384 13.275 25.5748 15.5997 25.3894L15.7529 25.4046C16.0849 25.4995 16.329 25.7599 16.4935 26.1476C16.8368 26.9577 16.8708 28.4841 16.693 30.1842C16.5178 31.8544 16.1416 33.7102 15.6613 35.2189C15.1368 36.8632 14.4556 38.1343 13.7177 38.4149L13.6721 38.4288C12.1146 38.8329 10.153 39.192 8.2093 39.3966C6.50332 39.5759 4.80112 39.6374 3.38351 39.5075L3.1794 39.434C2.43213 38.9184 1.73422 38.2402 1.17215 37.4732C0.636326 36.7415 0.220779 35.9251 0 35.089L0.0651459 34.7657Z" fill="#17306A"/>
<path d="M8.14377 29.125C5.03729 31.0035 2.19184 33.3757 0.854492 35.0717C1.0606 35.7552 1.41122 36.4222 1.85478 37.0269C2.34125 37.6914 2.938 38.2803 3.57566 38.7358C4.3605 38.8011 5.23762 38.8061 6.15609 38.7649C5.65894 37.6114 5.28497 36.4075 5.01662 35.1913L5.88173 35.021C6.15742 36.2732 6.60765 37.519 7.2124 38.699C7.51278 38.675 7.81582 38.647 8.11887 38.6154C8.96463 38.5262 9.81218 38.4077 10.6257 38.2696C10.8016 36.4487 10.7529 34.5998 10.3949 32.6876L11.1509 32.4849C11.2967 33.2626 11.4112 34.0252 11.4948 34.7764C12.2101 33.8947 12.7299 32.7103 12.7252 31.7457L13.4318 31.3555C13.4385 32.8901 12.8041 34.9017 11.606 36.0229C11.6516 36.7158 11.6696 37.3999 11.6596 38.0789C12.2859 37.9547 12.88 37.8204 13.4231 37.6804C13.8976 37.4828 14.4141 36.4106 14.8656 34.9936C15.3339 33.5262 15.6992 31.724 15.8686 30.1065C16.0345 28.5198 16.0158 27.1271 15.7241 26.4392C15.6705 26.3125 15.6158 26.2239 15.5616 26.1814C13.3965 26.3858 10.6886 27.5853 8.14377 29.125Z" fill="#81972F"/>
<path d="M9.5037 43.7255C7.11648 41.4028 5.70888 38.3367 5.01697 35.1913L5.88141 35.021C6.47349 37.7116 7.87509 40.3782 9.871 42.4094C10.6939 39.2336 11.0271 36.0604 10.3948 32.6876L11.1508 32.4849C11.2966 33.2626 11.4111 34.0252 11.4947 34.7764C12.21 33.8947 12.7298 32.7103 12.7251 31.7457L13.4317 31.3555C13.4384 32.8901 12.8041 34.9017 11.6059 36.0229C11.848 39.7009 11.3135 43.1484 9.97483 46.8417L8.4983 46.7421C8.86537 45.7295 9.20533 44.7263 9.5037 43.7255Z" fill="#17306A"/>
<path d="M81.5002 19.109L73.0401 5.98295V8.48916L81.5002 20.2376V19.109ZM81.5015 28.2019L73.0401 20.0339V22.5357L81.5022 29.4565L81.5015 28.2019ZM78.0186 16.7965V23.7192L80.8071 26.4104V20.6683L78.0186 16.7965ZM73.0381 9.88066L73.0387 18.912L77.1875 22.9169V15.6426L73.0381 9.88066ZM65.8104 12.0467V20.7487L72.2112 18.7872L72.2105 9.22501L65.8104 12.0467ZM59.4371 14.8565V22.7022L64.9795 21.0034V12.4136L59.4371 14.8565ZM74.4806 40.9581V36.4997L64.5493 33.5273V40.2734L74.4806 40.9581ZM69.4207 31.7253L80.965 30.0539L72.5209 23.1475L57.316 27.0953L69.4207 31.7253ZM72.2092 44.6563L59.4371 44.4447V45.9712L72.2092 46.6502V44.6563ZM62.1387 43.6986L63.7191 43.7257V40.638V33.278L62.6572 32.9606L62.1387 32.8055V43.6986ZM59.4371 43.6519L61.3085 43.6841V32.5576L59.4371 31.9971V40.286V42.9291V43.6519ZM72.6058 43.8792L74.4806 43.7632L74.4799 41.7459L64.5493 41.0606V43.7405L72.6058 43.8792ZM80.8071 44.1572L73.0401 44.6392V46.5963L80.8071 45.2966V44.1572ZM53.5888 43.3206V46.3766L58.606 45.9806C58.606 45.0939 58.606 44.2071 58.606 43.3204H53.5888V43.3206ZM53.5888 40.305V42.5369H58.606V40.6508L53.5888 40.305ZM53.5888 30.2469V39.5169L58.606 39.8634V31.7478L53.5888 30.2469ZM53.5888 26.515V29.4222L74.4799 35.675V34.5064L53.5888 26.515ZM53.5888 25.318V25.6601L56.1766 26.5784L72.209 22.4153V19.6119L53.5888 25.318ZM53.5888 17.4344V24.494L58.606 22.9562V15.2227L53.5888 17.4344ZM53.5888 0V13.5182L72.2265 4.33803L69.5672 0.203956L69.9211 0L72.703 4.32477L79.5561 0.950114L79.7475 1.29846L73.1019 4.5723L82.2699 18.796L82.3315 19V19.2686L87.0001 26.5252L86.6461 26.7291L82.3315 20.0229V21.5115L81.6382 21.7142V27.2126L82.2116 27.7662L82.3301 28.041L82.3308 30.4174L86.8349 34.1398L86.5625 34.4349L82.0369 30.6961L70.9281 32.3016L75.0502 33.8788L75.2583 34.1688L85.9149 38.2168L85.761 38.5809L75.3112 34.6117C75.3112 36.812 75.3119 39.0118 75.3119 41.2128L85.7543 41.9331L85.7256 42.3252L75.3119 41.607V43.7123L81.1969 43.3469L81.6384 43.7384V45.358L86.8711 44.482L86.9427 44.8689L81.5019 45.779L81.2945 46.0133L72.6966 47.4523L72.6023 47.4574L59.0327 46.7358L53.5892 47.1652V54H52.5923V0L53.5888 0ZM72.2092 5.23279L53.5888 14.4035V16.567L72.2092 8.35845V5.23279Z" fill="#17306A"/>
<path d="M48.9928 28.8708L52.5702 29.942L52.6124 39.444L48.9595 39.1521L48.9928 28.8708Z" fill="#E3C997"/>
</svg>
