<svg width="69" height="70" viewBox="0 0 69 70" fill="none" xmlns="http://www.w3.org/2000/svg">
<path d="M67.5 35C67.5 53.522 52.7051 68.5 34.5 68.5C16.2949 68.5 1.5 53.522 1.5 35C1.5 16.478 16.2949 1.5 34.5 1.5C52.7051 1.5 67.5 16.478 67.5 35Z" stroke="#17306A" stroke-width="3"/>
<path d="M18.5173 31.9566C17.7282 31.7404 17.1937 32.1523 16.8832 33.2161L15.6378 37.4449C13.6136 33.6213 13.1632 32.7709 13.0475 32.5702L13.0546 32.5667C12.8425 32.1431 12.2291 31.8375 11.6098 32.083C10.8329 32.378 10.5535 33.0881 10.8707 34.0035C10.9043 34.0717 14.2253 40.8304 14.2672 40.917C14.2672 40.917 14.3379 41.1021 14.35 41.1689C14.35 41.1689 14.3765 41.3286 14.3786 41.3286C14.3729 41.5473 14.3041 41.7253 14.1813 41.8419C14.0566 41.9581 13.8858 42.0185 13.6818 42.0062C13.6818 42.0062 13.1469 41.9935 13.084 41.9956C12.4597 42.0726 12.0494 42.4545 11.9862 43.0152C11.9408 43.384 12.0597 43.7115 12.3303 43.9627C12.6387 44.2478 13.1241 44.3955 13.7189 44.3955C13.9934 44.3955 14.2912 44.3641 14.6053 44.3001C15.5348 44.116 16.1426 43.6861 16.692 41.9447L19.3024 33.7368C19.4524 33.2542 19.4379 32.8271 19.2589 32.4996C19.1075 32.2304 18.8579 32.0477 18.5173 31.9566Z" fill="#17306A"/>
<path d="M26.8513 32.5921C26.0105 31.9555 24.8312 31.7492 23.4428 31.9993C21.6783 32.3049 20.6177 33.5598 20.3759 35.6279C20.0857 38.0568 20.4953 39.896 21.5605 40.9463C22.2199 41.5974 23.1298 41.9323 24.2223 41.9323C24.4791 41.9323 24.7461 41.9139 25.0223 41.8765C27.2307 41.566 28.0537 40.3411 28.0537 39.6416C28.0537 39.0403 27.6785 38.569 27.1525 38.4977C26.7959 38.426 26.5157 38.5454 26.0412 38.9683C25.3943 39.5322 24.6485 39.7607 23.9967 39.5964C23.5116 39.4728 23.1352 39.14 22.97 38.7033C22.938 38.5751 22.9144 38.4807 22.8914 38.4125H22.8925C22.8704 38.2959 22.8035 37.9412 22.9197 37.8642L27.227 37.861C27.6096 37.861 27.9016 37.8207 28.0846 37.6225C28.3708 37.3028 28.3607 36.5648 28.2464 35.3978C28.1264 34.1611 27.6439 33.191 26.8513 32.5921ZM25.7131 35.8678H22.2806C22.261 35.8113 22.2679 35.6993 22.3009 35.5368C22.3435 35.3598 22.3867 35.2068 22.5194 34.9892L22.6512 34.7854C22.8835 34.4922 23.2066 34.2904 23.5874 34.2011C24.1659 34.0605 24.6727 34.123 25.052 34.3834C25.3984 34.6205 25.6151 35.0048 25.6794 35.497C25.707 35.6898 25.7136 35.8032 25.7131 35.8678Z" fill="#17306A"/>
<path d="M32.7285 29.7045L32.723 29.6603C32.6483 29.3646 32.4105 29.1092 32.0867 28.977C31.6908 28.8166 31.2397 28.8579 30.8502 29.09C30.4625 29.3193 30.2971 29.6726 30.2971 30.2707L30.2992 40.6884C30.3582 41.0767 30.3628 41.0901 30.3661 41.0989C30.4555 41.4116 30.6851 41.6726 30.9958 41.8147C31.1645 41.8924 31.3461 41.9309 31.5284 41.9309C31.7172 41.9309 31.9066 41.8896 32.0822 41.8069C32.5289 41.614 32.7955 41.1731 32.7955 40.628L32.7939 30.194C32.794 30.1941 32.7318 29.7278 32.7285 29.7045Z" fill="#17306A"/>
<path d="M40.3826 31.8922C39.3687 31.6862 38.5052 31.8555 37.6515 32.4345C37.6515 32.4345 37.5805 32.4939 37.5605 32.5069L37.4778 32.5482L37.3861 32.3338L37.3093 32.219C37.0373 31.7958 36.3102 31.5909 35.6637 31.9604C35.2839 32.1748 35.1428 32.4949 35.1428 33.1421V43.3401C35.1428 43.9704 35.3588 44.3802 35.7999 44.5907C36.0015 44.6924 36.218 44.7433 36.4321 44.7433C36.6105 44.7433 36.7875 44.708 36.9525 44.6363C37.2692 44.4982 37.5008 44.248 37.5935 43.9241L37.6574 43.462L37.657 41.6867L37.6397 41.4281L37.683 41.2359L37.8017 41.315C37.8017 41.315 37.8633 41.3553 37.916 41.403L38.0234 41.4754L38.2492 41.5948C39.1531 42.0226 40.3631 41.9746 41.3318 41.4733C42.5521 40.837 43.1574 39.7171 43.2947 37.8422C43.5804 34.1246 42.7094 32.3447 40.3826 31.8922ZM41.7571 36.876C41.7403 38.8028 41.3294 39.5193 40.2415 39.5193C39.2486 39.5193 38.7759 38.8813 38.7088 37.4508L38.7067 37.4088C38.7018 37.2848 38.6901 36.9015 38.6901 36.9015C38.6903 36.8902 38.7069 36.4761 38.7065 36.4701C38.8056 34.686 39.1956 34.2702 39.8847 34.1267C40.4166 34.002 40.8181 34.0571 41.1117 34.2938C41.5718 34.6637 41.7769 35.4841 41.7571 36.876Z" fill="#17306A"/>
<path d="M44.9826 39.2888C44.3621 39.2888 43.8761 39.7742 43.8761 40.3935C43.8761 41.0142 44.362 41.5003 44.9826 41.5003C45.5927 41.5003 46.0891 41.0039 46.0891 40.3935C46.0891 39.7845 45.5927 39.2888 44.9826 39.2888Z" fill="#17306A"/>
<path d="M45.2274 35.6323C45.3795 35.922 45.6489 36.1008 45.9453 36.111C45.9617 36.1121 45.9767 36.1128 45.9926 36.1128C46.1548 36.1128 46.4045 36.0358 49.101 35.1695C50.0349 34.8713 50.2872 34.7908 50.3622 34.7657C50.7519 34.6661 51.0209 34.3107 51.0476 33.8595C51.0723 33.3995 50.8245 32.9915 50.4355 32.8459C49.8363 32.6018 49.6252 32.5156 49.5406 32.4855L49.5418 32.4827C46.329 31.1572 46.3135 31.1568 46.1285 31.1547C45.8287 31.1409 45.5551 31.2967 45.3764 31.5783C45.0388 32.121 44.9092 33.7122 45.0189 34.7738C45.0624 35.1631 45.1326 35.4518 45.2274 35.6323Z" fill="#17306A"/>
<path d="M51.9784 35.5884C51.5493 35.4227 51.086 35.5319 50.8276 35.8555C50.8276 35.8555 50.4072 36.3547 50.257 36.532L50.2029 36.5956C47.9542 39.2347 47.9463 39.2576 47.8857 39.4329C47.8426 39.5498 47.8276 39.67 47.8408 39.7865C47.8567 39.9557 47.9307 40.1242 48.0556 40.2747C48.5541 40.8668 50.7123 41.6882 51.6711 41.6882C51.7437 41.6882 51.8096 41.6836 51.8672 41.6737C52.1972 41.6136 52.4376 41.4246 52.5459 41.1356C52.6056 40.9611 52.6104 40.9469 52.6192 37.8444C52.6192 37.8444 52.6261 36.5584 52.6266 36.5196C52.6523 36.1155 52.3978 35.7498 51.9784 35.5884Z" fill="#17306A"/>
<path d="M52.1842 23.0205L52.1805 23.0035C52.0977 22.7014 51.8601 22.4806 51.5283 22.398C50.6442 22.1783 47.4134 23.0869 46.7897 23.7306C46.5629 23.9666 46.4709 24.2736 46.556 24.5859C46.6496 24.7784 50.1661 30.312 50.5655 30.9405C50.9206 31.5157 51.303 31.805 51.7052 31.805C51.7948 31.805 51.8852 31.7909 51.9765 31.7619C52.4787 31.6075 52.7133 31.114 52.6735 30.2954C52.6179 29.0169 52.2337 23.306 52.1842 23.0205Z" fill="#17306A"/>
<path d="M54.3887 33.3783L54.1292 33.6595L54.8381 33.3959C54.9907 33.339 55.2963 33.2652 55.7821 33.1497C59.1412 32.3361 59.1728 32.3156 59.3273 32.2153C59.5771 32.0454 59.7034 31.7677 59.6836 31.4444L59.6841 31.4112L59.6825 31.3971C59.5922 30.5386 58.1551 28.4178 57.4208 28.0599C57.1177 27.9129 56.81 27.9267 56.557 28.0973C56.4026 28.198 56.3653 28.2471 54.5622 30.7134C54.5622 30.7134 53.8111 31.7365 53.7763 31.7814C53.5191 32.0934 53.5113 32.5374 53.7565 32.9133C53.9137 33.1543 54.1425 33.3168 54.3887 33.3783Z" fill="#17306A"/>
<path d="M59.4852 36.1985C59.3409 36.0907 59.329 36.0819 56.3754 35.1111C55.8995 34.9542 55.1728 34.714 55.1193 34.6935C54.7427 34.549 54.317 34.6787 54.0352 35.0256C53.7443 35.3803 53.7058 35.8572 53.9363 36.2084L54.4387 37.0259C56.1963 39.8808 56.2717 39.9893 56.4214 40.1062C56.5664 40.22 56.7349 40.2772 56.9146 40.2772C57.0312 40.2772 57.1524 40.2532 57.275 40.2041C58.0466 39.896 59.6657 37.8388 59.786 37.0125C59.8309 36.6839 59.723 36.3886 59.4852 36.1985Z" fill="#17306A"/>
</svg>
