<svg width="70" height="70" viewBox="0 0 70 70" fill="none" xmlns="http://www.w3.org/2000/svg">
<circle cx="35" cy="35" r="33.5" stroke="#17306A" stroke-width="3"/>
<g clip-path="url(#clip0_2855_5)">
<path d="M48.8141 29.1375C48.8141 26.6766 47.0039 24.6969 44.7672 24.6969C41.7375 24.5547 38.6476 24.5 35.4922 24.5C35.3281 24.5 35.1641 24.5 35 24.5C34.8359 24.5 34.6719 24.5 34.5078 24.5C31.3578 24.5 28.2625 24.5547 25.2328 24.6969C23.0016 24.6969 21.1914 26.6875 21.1914 29.1484C21.0547 31.0953 20.9945 33.0422 21 34.9891C20.9945 36.9359 21.0547 38.8828 21.1859 40.8352C21.1859 43.2961 22.9961 45.2922 25.2273 45.2922C28.4101 45.4398 31.675 45.5055 34.9945 45.5C38.3195 45.5109 41.5734 45.4453 44.7617 45.2922C46.9984 45.2922 48.8086 43.2961 48.8086 40.8352C48.9398 38.8828 49 36.9359 48.9945 34.9836C49.0055 33.0367 48.9453 31.0898 48.8141 29.1375ZM32.3203 40.3539V29.6078L40.25 34.9781L32.3203 40.3539Z" fill="#17306A"/>
</g>
<defs>
<clipPath id="clip0_2855_5">
<rect width="28" height="28" fill="white" transform="translate(21 21)"/>
</clipPath>
</defs>
</svg>
